<?xml version="1.0" encoding="UTF-8"?> <svg xmlns="http://www.w3.org/2000/svg" id="Ebene_1" data-name="Ebene 1" width="190.13" height="69.63" viewBox="0 0 190.13 69.63"><defs><style> .cls-1 { fill: #df842e; opacity: 0.3; } .cls-2 { fill: #bababa; } .cls-2, .cls-3 { fill-rule: evenodd; } .cls-3 { fill: gray; stroke: #5d514c; stroke-miterlimit: 10; stroke-width: 0.25px; } .cls-4 { fill: #fff; } </style></defs><rect class="cls-1" x="52.14" y="42.57" width="137.99" height="12.01" rx="2.41"></rect><path class="cls-2" d="M104.34,19.43" transform="translate(-3.6 -16.31)"></path><path class="cls-3" d="M38.55,16.44c-48.77.08-33.88,8.4-28.11,7.17,1-.2.15-2.75,1.2-3,3.76-.84,9.15-.92,10.76-1.08,55.13-5.4,140,10.7,56,17.56l-1.93.33c.07-1.86.17-3.68.35-5.44s-2.83-1.71-3.08-.3a40.46,40.46,0,0,0-.42,6.21c-5.27.75-6.2.83-6.78,4.19-.37,2.17,2.7.89,6.84-.64a187.37,187.37,0,0,0,2.24,21.64c1.09,4.65,3.27,2,2.4,0a194.5,194.5,0,0,1-1.6-22.71c.49-.17,1-.32,1.49-.47,4.93-1.44,10.84-1.89,20.44-2.54C119.55,35.93,144.48,18.29,38.55,16.44Z" transform="translate(-3.6 -16.31)"></path><path class="cls-3" d="M96,55.31c-1.74-.87-8.53.82-7.18-1.79,3.44-.69,9-1.46,7.18-6-2.39-5.27-9.91-3.12-11.3,3-.27,3.66.66,4.74,2.93,5.85A67.55,67.55,0,0,0,96,57.65C99,56.58,97.63,55.68,96,55.31Zm-9-4.18c-.31-.73.49-1.81,1.79-3a3.54,3.54,0,0,1,2.4-1.2c2.77.21,2.23,3.31.59,4.13C90.31,51.8,87.46,52.2,87,51.13Z" transform="translate(-3.6 -16.31)"></path><path class="cls-3" d="M96.57,44c17.38,0,42,8.69,8.72,11.68-.77,5.17,3.61,22.88,6.83,28.39,1.07,1.94-2.11,2.26-3,1.2-4.44-9-6.25-21.48-7.14-32.29-.2-2.35,2.58-.66,2.35-.61.09.27,0,1.09.51,1.1,3.37,0,32.76-2.69-7.87-7C94.82,46.31,95.93,44.11,96.57,44Z" transform="translate(-3.6 -16.31)"></path><path class="cls-3" d="M135.44,55.31c-1.73-.87-8.52.82-7.17-1.79,3.43-.69,9-1.46,7.17-6-2.39-5.27-9.91-3.12-11.3,3-.26,3.66.66,4.74,2.93,5.85a67.69,67.69,0,0,0,8.36,1.25C138.51,56.58,137.1,55.68,135.44,55.31Zm-9-4.18c-.3-.73.49-1.81,1.8-3a3.54,3.54,0,0,1,2.39-1.2c2.78.21,2.24,3.31.59,4.13C129.79,51.8,126.93,52.2,126.47,51.13Z" transform="translate(-3.6 -16.31)"></path><g><path class="cls-4" d="M114.93,67.52l-.08-.09c.19-.65.33-1.21.42-1.69a6.18,6.18,0,0,0,.13-1c0-.12,0-.18-.08-.18a1.45,1.45,0,0,0-.5.29h0l-.07-.12v0a9.74,9.74,0,0,1,.92-.7,1,1,0,0,1,.42-.16.17.17,0,0,1,.16.08.3.3,0,0,1,0,.19,2.45,2.45,0,0,1,0,.27c0,.1-.12.5-.28,1.21h0a6.7,6.7,0,0,1,.36-.76,4,4,0,0,1,.38-.59,1.38,1.38,0,0,1,.33-.3.59.59,0,0,1,.29-.07.58.58,0,0,1,.19,0l0,0a2.6,2.6,0,0,0-.1.48,4.08,4.08,0,0,0,0,.51l-.08,0a.61.61,0,0,0-.39-.16.52.52,0,0,0-.34.13,1.58,1.58,0,0,0-.35.49,4.15,4.15,0,0,0-.33.89,6.14,6.14,0,0,0-.21,1.07l-.42.07A1.77,1.77,0,0,0,114.93,67.52Z" transform="translate(-3.6 -16.31)"></path><path class="cls-4" d="M117.69,64.9l-.07-.13v0a9.2,9.2,0,0,1,1-.71,1.26,1.26,0,0,1,.56-.21.23.23,0,0,1,.16.08.32.32,0,0,1,.06.2,2.4,2.4,0,0,1,0,.4q-.06.26-.24.93a8.92,8.92,0,0,0-.32,1.36.12.12,0,0,0,0,.09.08.08,0,0,0,.07,0,1.72,1.72,0,0,0,.58-.34h0l.08.15,0,0c-.17.12-.37.26-.61.41a3,3,0,0,1-.5.3.74.74,0,0,1-.27.06.25.25,0,0,1-.21-.11.54.54,0,0,1-.07-.27,1.89,1.89,0,0,1,0-.38,6.07,6.07,0,0,1,.18-.74,9.79,9.79,0,0,0,.3-1.38c0-.07,0-.1-.08-.1a1.67,1.67,0,0,0-.64.35Zm1.15-2.21a.6.6,0,0,1,.14-.39.51.51,0,0,1,.37-.16.41.41,0,0,1,.3.12.39.39,0,0,1,.1.29.67.67,0,0,1-.13.41.42.42,0,0,1-.37.18.35.35,0,0,1-.31-.13A.47.47,0,0,1,118.84,62.69Z" transform="translate(-3.6 -16.31)"></path><path class="cls-4" d="M120.27,66.3h.16l0,0v.32a1.14,1.14,0,0,0,.39.31,1.26,1.26,0,0,0,.54.13,1,1,0,0,0,.36-.06.42.42,0,0,0,.24-.21.56.56,0,0,0,.08-.3.4.4,0,0,0-.07-.24.4.4,0,0,0-.18-.16,1.47,1.47,0,0,0-.36-.12c-.25-.05-.42-.1-.52-.13a.87.87,0,0,1-.27-.14.67.67,0,0,1-.2-.26.91.91,0,0,1-.08-.37,1,1,0,0,1,.08-.37.77.77,0,0,1,.21-.31,2.4,2.4,0,0,1,.44-.32,2.82,2.82,0,0,1,.47-.25,1.58,1.58,0,0,1,.41,0,1.85,1.85,0,0,1,.9.23c0,.24-.09.52-.12.86l0,0h-.16l0,0,0-.34a1.3,1.3,0,0,0-.39-.25,1.47,1.47,0,0,0-.44-.08.67.67,0,0,0-.43.14.51.51,0,0,0-.17.39.42.42,0,0,0,.17.36,2.15,2.15,0,0,0,.67.2,2.81,2.81,0,0,1,.5.15.63.63,0,0,1,.28.26.82.82,0,0,1,.11.42.94.94,0,0,1-.11.45,1.57,1.57,0,0,1-.43.45,2.39,2.39,0,0,1-.57.36,1.8,1.8,0,0,1-.63.1,2.69,2.69,0,0,1-.4,0,2.74,2.74,0,0,1-.58-.18v0c0-.09.05-.24.08-.46s0-.37.06-.47Z" transform="translate(-3.6 -16.31)"></path><path class="cls-4" d="M124.37,64.35h-.77l0,0,0-.13,0,0a8.3,8.3,0,0,0,.82-.25l.06-.35a5,5,0,0,0,.07-.68,5.56,5.56,0,0,0,.66-.21l.25-.09.08.1c-.08.23-.19.67-.33,1.3h.38a4.21,4.21,0,0,0,.61,0l0,.06a3,3,0,0,0-.08.35l0,0a5.53,5.53,0,0,0-.59,0h-.39q-.06.3-.15.69l-.15.72-.11.55-.06.31s0,.08,0,.12a.18.18,0,0,0,0,.14.17.17,0,0,0,.13.05l.14,0,.21-.11.45-.31h0l.08.14v0a11.27,11.27,0,0,1-1.1.74,1.18,1.18,0,0,1-.43.13.41.41,0,0,1-.32-.13.56.56,0,0,1-.11-.35,2.43,2.43,0,0,1,0-.33c0-.14.09-.46.2-1C124.26,64.89,124.36,64.41,124.37,64.35Z" transform="translate(-3.6 -16.31)"></path><path class="cls-4" d="M126.49,66.36a3.82,3.82,0,0,1,.12-.85,1.9,1.9,0,0,1,.39-.86,2.37,2.37,0,0,1,.75-.59,2.07,2.07,0,0,1,1-.25,1.17,1.17,0,0,1,.84.3,1.11,1.11,0,0,1,.33.88,3.33,3.33,0,0,1-.2,1.1,1.69,1.69,0,0,1-.54.82,3.92,3.92,0,0,1-.7.44,1.72,1.72,0,0,1-.83.19,1.21,1.21,0,0,1-.69-.17.9.9,0,0,1-.35-.45A1.5,1.5,0,0,1,126.49,66.36Zm.86,0a1,1,0,0,0,.17.65.6.6,0,0,0,.48.2.67.67,0,0,0,.39-.12,1.06,1.06,0,0,0,.31-.44,3.21,3.21,0,0,0,.23-.77A4.48,4.48,0,0,0,129,65a.93.93,0,0,0-.18-.66.61.61,0,0,0-.45-.19.69.69,0,0,0-.5.21,2.06,2.06,0,0,0-.38.84A5,5,0,0,0,127.35,66.33Z" transform="translate(-3.6 -16.31)"></path><path class="cls-4" d="M130.71,67.52l-.07-.09c.19-.65.33-1.21.42-1.69a7.58,7.58,0,0,0,.13-1q0-.18-.09-.18a1.44,1.44,0,0,0-.49.29h-.06l-.07-.12v0a11.28,11.28,0,0,1,.92-.7,1,1,0,0,1,.42-.16.16.16,0,0,1,.16.08.31.31,0,0,1,.06.19,1.24,1.24,0,0,1,0,.27c0,.1-.11.5-.28,1.21h.05c.12-.27.24-.53.37-.76a3.36,3.36,0,0,1,.38-.59,1.2,1.2,0,0,1,.32-.3.63.63,0,0,1,.3-.07.62.62,0,0,1,.19,0l0,0a3.84,3.84,0,0,0-.1.48,4.08,4.08,0,0,0,0,.51l-.08,0a.57.57,0,0,0-.38-.16.52.52,0,0,0-.34.13,1.43,1.43,0,0,0-.35.49,4.74,4.74,0,0,0-.34.89,8.81,8.81,0,0,0-.21,1.07l-.41.07A1.87,1.87,0,0,0,130.71,67.52Z" transform="translate(-3.6 -16.31)"></path><path class="cls-4" d="M137,66.6l.08.15v0a8.22,8.22,0,0,1-.91.62.9.9,0,0,1-.41.14.19.19,0,0,1-.18-.1.41.41,0,0,1-.07-.25,2.34,2.34,0,0,1,.06-.44c0-.2.12-.55.25-1.07a5.84,5.84,0,0,1-1.1,1.46,1.43,1.43,0,0,1-.8.4.36.36,0,0,1-.29-.15.89.89,0,0,1-.13-.54,3.7,3.7,0,0,1,.11-.8,4.87,4.87,0,0,1,.29-.92,1.15,1.15,0,0,1,.22-.38,4,4,0,0,1,.56-.46,3.55,3.55,0,0,1,.61-.38,1.31,1.31,0,0,1,.41-.06,1.42,1.42,0,0,1,.38,0,1.72,1.72,0,0,1,.4.14l.34-.2.12.09a5.88,5.88,0,0,0-.23.8L136.42,66a6.91,6.91,0,0,0-.14.8c0,.1,0,.15.1.15a1.79,1.79,0,0,0,.57-.32Zm-1-2.18a1.35,1.35,0,0,0-.6-.16.54.54,0,0,0-.46.23,3,3,0,0,0-.38,1,5,5,0,0,0-.21,1.16q0,.27.15.27c.1,0,.29-.15.55-.46a4.26,4.26,0,0,0,.65-1A3.65,3.65,0,0,0,136,64.42Z" transform="translate(-3.6 -16.31)"></path><path class="cls-4" d="M137.67,67.52l-.1-.1a7.93,7.93,0,0,0,.3-1c.11-.44.2-.83.26-1.16a6,6,0,0,0,.08-.62c0-.09,0-.13-.09-.13a1.4,1.4,0,0,0-.52.31h0l-.07-.12v0l.44-.36c.17-.13.32-.23.46-.32a1.11,1.11,0,0,1,.3-.16.46.46,0,0,1,.19,0c.13,0,.2.08.2.24a2.41,2.41,0,0,1-.07.5q-.06.32-.27,1.11a4.63,4.63,0,0,1,1-1.31,1.8,1.8,0,0,1,1-.54c.2,0,.31.12.31.35a2.29,2.29,0,0,1-.09.54c0,.24-.14.58-.27,1-.08.3-.14.53-.17.7a2.22,2.22,0,0,0,0,.33c0,.09,0,.14.08.14a1.22,1.22,0,0,0,.54-.3h0l.09.14,0,0a6.8,6.8,0,0,1-.89.6,1.12,1.12,0,0,1-.46.14.2.2,0,0,1-.21-.12.53.53,0,0,1,0-.25,5.64,5.64,0,0,1,.25-1.2,6.25,6.25,0,0,0,.28-1.26c0-.1,0-.15-.14-.15a.46.46,0,0,0-.18.06,1.34,1.34,0,0,0-.33.28,3.48,3.48,0,0,0-.41.52,4,4,0,0,0-.32.62,5.19,5.19,0,0,0-.23.73,4,4,0,0,0-.11.61A3.3,3.3,0,0,0,137.67,67.52Z" transform="translate(-3.6 -16.31)"></path><path class="cls-4" d="M142.66,64.35h-.76l0,0,0-.13.05,0c.2,0,.47-.13.82-.25a3.39,3.39,0,0,1,.05-.35,3.81,3.81,0,0,0,.07-.68,4.6,4.6,0,0,0,.66-.21l.25-.09.08.1c-.07.23-.18.67-.33,1.3h.38a4.11,4.11,0,0,0,.61,0l0,.06a3,3,0,0,0-.08.35l-.05,0a5.43,5.43,0,0,0-.59,0h-.39c0,.2-.09.43-.14.69l-.16.72-.11.55a2.52,2.52,0,0,0-.05.31.49.49,0,0,0,0,.12c0,.07,0,.11,0,.14a.13.13,0,0,0,.12.05l.14,0,.21-.11.45-.31H144l.07.14v0a11.27,11.27,0,0,1-1.1.74,1.18,1.18,0,0,1-.43.13.41.41,0,0,1-.32-.13.56.56,0,0,1-.11-.35,2.43,2.43,0,0,1,0-.33c0-.14.09-.46.21-1C142.56,64.89,142.65,64.41,142.66,64.35Z" transform="translate(-3.6 -16.31)"></path><path class="cls-4" d="M147.24,66.55l.09.15v0a6.49,6.49,0,0,1-1,.63,1.91,1.91,0,0,1-.7.17,1.06,1.06,0,0,1-.5-.12.67.67,0,0,1-.34-.32,1.13,1.13,0,0,1-.09-.45,3.9,3.9,0,0,1,.15-1,2.51,2.51,0,0,1,.38-.92,2.64,2.64,0,0,1,.76-.6,1.9,1.9,0,0,1,.9-.3.87.87,0,0,1,.52.16.59.59,0,0,1,.2.47,1.09,1.09,0,0,1-.23.67,1.63,1.63,0,0,1-.73.51,5.09,5.09,0,0,1-1.06.3,2.91,2.91,0,0,0,0,.49.58.58,0,0,0,.17.48A.6.6,0,0,0,146,67a1.18,1.18,0,0,0,.35,0,1.63,1.63,0,0,0,.32-.13l.49-.31Zm-1.67-.82a1.8,1.8,0,0,0,1-.52,1.18,1.18,0,0,0,.26-.66.34.34,0,0,0-.35-.37.62.62,0,0,0-.52.31A3.64,3.64,0,0,0,145.57,65.73Z" transform="translate(-3.6 -16.31)"></path><path class="cls-4" d="M152.43,66.55l.08.15v0a6.08,6.08,0,0,1-1,.63,1.82,1.82,0,0,1-.69.17,1.06,1.06,0,0,1-.5-.12.67.67,0,0,1-.34-.32,1,1,0,0,1-.1-.45,4.39,4.39,0,0,1,.15-1,2.34,2.34,0,0,1,.39-.92,2.51,2.51,0,0,1,.76-.6,1.83,1.83,0,0,1,.9-.3.82.82,0,0,1,.51.16.56.56,0,0,1,.2.47,1.08,1.08,0,0,1-.22.67,1.66,1.66,0,0,1-.74.51,4.92,4.92,0,0,1-1.06.3,2.85,2.85,0,0,0,0,.49.52.52,0,0,0,.55.61,1.12,1.12,0,0,0,.34,0,1.75,1.75,0,0,0,.33-.13l.49-.31Zm-1.68-.82a1.73,1.73,0,0,0,1-.52,1.13,1.13,0,0,0,.27-.66.34.34,0,0,0-.11-.27.32.32,0,0,0-.25-.1.63.63,0,0,0-.52.31A4.15,4.15,0,0,0,150.75,65.73Z" transform="translate(-3.6 -16.31)"></path><path class="cls-4" d="M155,64.74v0l.59-.47a3.47,3.47,0,0,1,.49-.33.56.56,0,0,1,.3-.1c.15,0,.23.08.23.25a2.41,2.41,0,0,1-.07.46c0,.22-.11.52-.21.89a7.5,7.5,0,0,1,.54-.75,3.15,3.15,0,0,1,.66-.55,1.35,1.35,0,0,1,.74-.28.32.32,0,0,1,.23.09.73.73,0,0,1,.15.33,2,2,0,0,1,.06.48,3.26,3.26,0,0,1-.18,1,2.82,2.82,0,0,1-.37.81,1.89,1.89,0,0,1-.54.48,4,4,0,0,1-.63.38,1.4,1.4,0,0,1-.6.12,1.82,1.82,0,0,1-.42,0c-.06.23-.12.52-.2.87s-.12.56-.13.64,0,.19,0,.34a2.83,2.83,0,0,0-.44.07l-.39.08-.08,0,.33-1.26c.12-.46.26-1.09.42-1.87s.27-1.27.29-1.46a.66.66,0,0,0,0-.13.21.21,0,0,0,0-.12.09.09,0,0,0-.07,0,.3.3,0,0,0-.14.06l-.39.28h-.05Zm1.06,2.2a1.43,1.43,0,0,0,.7.2.58.58,0,0,0,.3-.08.81.81,0,0,0,.27-.28,3.46,3.46,0,0,0,.24-.56c.08-.24.14-.47.19-.69a2.58,2.58,0,0,0,.08-.68.85.85,0,0,0,0-.33.14.14,0,0,0-.14-.1.69.69,0,0,0-.3.1,1.67,1.67,0,0,0-.43.37,2.92,2.92,0,0,0-.42.6,4,4,0,0,0-.25.57C156.21,66.21,156.14,66.51,156.05,66.94Z" transform="translate(-3.6 -16.31)"></path><path class="cls-4" d="M159.23,64.9l-.07-.13v0a9.2,9.2,0,0,1,1-.71,1.26,1.26,0,0,1,.56-.21.21.21,0,0,1,.16.08.32.32,0,0,1,.06.2,1.66,1.66,0,0,1,0,.4q-.06.26-.24.93a10.55,10.55,0,0,0-.32,1.36.12.12,0,0,0,0,.09.09.09,0,0,0,.07,0,1.72,1.72,0,0,0,.59-.34h0l.08.15v0l-.61.41a3.41,3.41,0,0,1-.51.3.73.73,0,0,1-.26.06.22.22,0,0,1-.21-.11.45.45,0,0,1-.07-.27,1.82,1.82,0,0,1,0-.38c0-.15.09-.39.18-.74a10.64,10.64,0,0,0,.31-1.38c0-.07,0-.1-.09-.1a1.66,1.66,0,0,0-.63.35Zm1.15-2.21a.6.6,0,0,1,.14-.39.51.51,0,0,1,.37-.16.39.39,0,0,1,.3.12.4.4,0,0,1,.11.29.74.74,0,0,1-.13.41.43.43,0,0,1-.37.18.36.36,0,0,1-.32-.13A.47.47,0,0,1,160.38,62.69Z" transform="translate(-3.6 -16.31)"></path><path class="cls-4" d="M161.63,67.18l2.52-2.65a1.15,1.15,0,0,1-.57.14c-.13,0-.33,0-.61,0l-.47-.05h-.16l-.16.37,0,0H162v0l.32-1a1.33,1.33,0,0,1,.38-.07,3.37,3.37,0,0,1,.79.14,3.06,3.06,0,0,0,.79.14.65.65,0,0,0,.29-.06.5.5,0,0,0,.21-.22l.15.06-.11.39-2.43,2.53a2,2,0,0,1,.69-.19,4.47,4.47,0,0,1,.57.07,3.87,3.87,0,0,0,.57.08l.17,0,.18-.4.05,0,.14,0,0,0a7.73,7.73,0,0,0-.27,1.05.83.83,0,0,1-.43.1l-.32,0-.59-.15a3.94,3.94,0,0,0-.83-.13.75.75,0,0,0-.59.25Z" transform="translate(-3.6 -16.31)"></path><path class="cls-4" d="M165.37,67.18l2.52-2.65a1.17,1.17,0,0,1-.57.14c-.13,0-.34,0-.61,0l-.47-.05h-.16l-.16.37,0,0h-.16l0,0,.33-1a1.33,1.33,0,0,1,.38-.07,3.37,3.37,0,0,1,.79.14,3.07,3.07,0,0,0,.78.14.67.67,0,0,0,.3-.06.5.5,0,0,0,.21-.22l.15.06-.11.39L166.1,66.8a1.9,1.9,0,0,1,.69-.19,4.17,4.17,0,0,1,.56.07,4.25,4.25,0,0,0,.57.08l.18,0,.18-.4,0,0,.14,0,0,0a7.73,7.73,0,0,0-.27,1.05.83.83,0,0,1-.43.1l-.32,0-.59-.15a3.94,3.94,0,0,0-.83-.13.74.74,0,0,0-.59.25Z" transform="translate(-3.6 -16.31)"></path><path class="cls-4" d="M171.74,66.55l.09.15v0a6.49,6.49,0,0,1-1,.63,1.91,1.91,0,0,1-.7.17,1.06,1.06,0,0,1-.5-.12.67.67,0,0,1-.34-.32,1.14,1.14,0,0,1-.1-.45,4.39,4.39,0,0,1,.15-1,2,2,0,0,1,1.15-1.52,1.9,1.9,0,0,1,.9-.3.87.87,0,0,1,.52.16.59.59,0,0,1,.2.47,1.09,1.09,0,0,1-.23.67,1.66,1.66,0,0,1-.74.51,4.77,4.77,0,0,1-1.06.3,4.4,4.4,0,0,0,0,.49.58.58,0,0,0,.17.48.6.6,0,0,0,.38.13,1.12,1.12,0,0,0,.34,0,1.75,1.75,0,0,0,.33-.13l.49-.31Zm-1.68-.82a1.73,1.73,0,0,0,1-.52,1.13,1.13,0,0,0,.27-.66.37.37,0,0,0-.1-.27.35.35,0,0,0-.26-.1.6.6,0,0,0-.51.31A3.82,3.82,0,0,0,170.06,65.73Z" transform="translate(-3.6 -16.31)"></path><path class="cls-4" d="M172.67,67.52l-.08-.09c.19-.65.33-1.21.42-1.69a7.58,7.58,0,0,0,.13-1q0-.18-.09-.18a1.44,1.44,0,0,0-.49.29h-.06l-.07-.12v0a9.74,9.74,0,0,1,.92-.7,1,1,0,0,1,.42-.16.17.17,0,0,1,.16.08.38.38,0,0,1,.05.19,1.24,1.24,0,0,1,0,.27c0,.1-.11.5-.28,1.21h0c.12-.27.24-.53.37-.76a4,4,0,0,1,.38-.59,1.2,1.2,0,0,1,.32-.3.66.66,0,0,1,.3-.07.58.58,0,0,1,.19,0l0,0a2.47,2.47,0,0,0-.11.48,3.75,3.75,0,0,0,0,.51l-.09,0a.57.57,0,0,0-.38-.16.52.52,0,0,0-.34.13,1.58,1.58,0,0,0-.35.49,4.74,4.74,0,0,0-.34.89,8.81,8.81,0,0,0-.21,1.07l-.41.07A1.63,1.63,0,0,0,172.67,67.52Z" transform="translate(-3.6 -16.31)"></path><path class="cls-4" d="M175.43,64.9l-.07-.13v0a10.3,10.3,0,0,1,1-.71,1.29,1.29,0,0,1,.57-.21.19.19,0,0,1,.15.08.27.27,0,0,1,.07.2,1.76,1.76,0,0,1-.06.4q-.06.26-.24.93a10.55,10.55,0,0,0-.32,1.36.13.13,0,0,0,0,.09.08.08,0,0,0,.07,0,1.82,1.82,0,0,0,.58-.34h.05l.08.15,0,0c-.17.12-.37.26-.61.41a3.48,3.48,0,0,1-.5.3.78.78,0,0,1-.27.06.24.24,0,0,1-.21-.11.45.45,0,0,1-.07-.27,1.82,1.82,0,0,1,0-.38c0-.15.09-.39.18-.74a9,9,0,0,0,.31-1.38c0-.07,0-.1-.09-.1a1.66,1.66,0,0,0-.63.35Zm1.14-2.21a.56.56,0,0,1,.15-.39.47.47,0,0,1,.36-.16.38.38,0,0,1,.3.12.4.4,0,0,1,.11.29.67.67,0,0,1-.13.41.43.43,0,0,1-.37.18.37.37,0,0,1-.32-.13A.53.53,0,0,1,176.57,62.69Z" transform="translate(-3.6 -16.31)"></path><path class="cls-4" d="M181.43,66.6l.08.15v0a8.22,8.22,0,0,1-.91.62.9.9,0,0,1-.41.14.19.19,0,0,1-.18-.1.41.41,0,0,1-.07-.25,2.34,2.34,0,0,1,.06-.44c0-.2.12-.55.25-1.07a5.84,5.84,0,0,1-1.1,1.46,1.41,1.41,0,0,1-.8.4.36.36,0,0,1-.29-.15.89.89,0,0,1-.12-.54,3.63,3.63,0,0,1,.1-.8,5.73,5.73,0,0,1,.29-.92,1.15,1.15,0,0,1,.22-.38,4,4,0,0,1,.56-.46,3.55,3.55,0,0,1,.61-.38,1.31,1.31,0,0,1,.41-.06,1.42,1.42,0,0,1,.38,0,1.57,1.57,0,0,1,.4.14l.34-.2.12.09a5,5,0,0,0-.22.8L180.86,66a6.91,6.91,0,0,0-.14.8c0,.1,0,.15.1.15a1.69,1.69,0,0,0,.57-.32Zm-1-2.18a1.35,1.35,0,0,0-.6-.16.54.54,0,0,0-.46.23,3.2,3.2,0,0,0-.38,1,4.86,4.86,0,0,0-.2,1.16c0,.18,0,.27.14.27s.29-.15.55-.46a4.26,4.26,0,0,0,.65-1A3.34,3.34,0,0,0,180.41,64.42Z" transform="translate(-3.6 -16.31)"></path></g></svg> 